<svg width="24" height="24" viewBox="0 0 24 24" fill="none" xmlns="http://www.w3.org/2000/svg">
<path d="M10.75 3.3335H3.16667C2.59203 3.3335 2.04093 3.56177 1.6346 3.9681C1.22827 4.37443 1 4.92553 1 5.50016V20.6668C1 21.2415 1.22827 21.7926 1.6346 22.1989C2.04093 22.6052 2.59203 22.8335 3.16667 22.8335H18.3333C18.908 22.8335 19.4591 22.6052 19.8654 22.1989C20.2717 21.7926 20.5 21.2415 20.5 20.6668V13.0835" stroke="#C4C4C4" stroke-width="2" stroke-linecap="round" stroke-linejoin="round"/>
<path d="M18.875 1.70825C19.306 1.27728 19.8905 1.03516 20.5 1.03516C21.1095 1.03516 21.694 1.27728 22.125 1.70825C22.556 2.13923 22.7981 2.72376 22.7981 3.33325C22.7981 3.94275 22.556 4.52728 22.125 4.95825L11.8333 15.2499L7.5 16.3333L8.58333 11.9999L18.875 1.70825Z" stroke="#C4C4C4" stroke-width="2" stroke-linecap="round" stroke-linejoin="round"/>
</svg>
