<svg width="20" height="20" viewBox="0 0 20 20" fill="none" xmlns="http://www.w3.org/2000/svg">
<circle cx="10" cy="10" r="10" fill="white"/>
<path d="M12.5 8.3335C12.5 7.67045 12.2366 7.03457 11.7678 6.56573C11.2989 6.09689 10.663 5.8335 10 5.8335C9.33696 5.8335 8.70107 6.09689 8.23223 6.56573C7.76339 7.03457 7.5 7.67045 7.5 8.3335C7.5 11.2502 6.25 12.0835 6.25 12.0835H13.75C13.75 12.0835 12.5 11.2502 12.5 8.3335Z" stroke="black" stroke-linecap="round" stroke-linejoin="round"/>
<path d="M10.721 13.75C10.6477 13.8763 10.5426 13.9811 10.4161 14.054C10.2896 14.1268 10.1461 14.1652 10.0001 14.1652C9.85414 14.1652 9.71071 14.1268 9.5842 14.054C9.4577 13.9811 9.35255 13.8763 9.2793 13.75" stroke="black" stroke-linecap="round" stroke-linejoin="round"/>
</svg>
